<svg xmlns="http://www.w3.org/2000/svg" xmlns:xlink="http://www.w3.org/1999/xlink" viewBox="0 0 91.52604748510547 91.52604748510547" height="91.52604748510547" width="91.52604748510547" data-background-color="#000000" preserveAspectRatio="xMidYMid meet" id="tight-bounds"><g><svg viewBox="0 0 91.52604748510547 91.52604748510547" height="91.52604748510547" width="91.52604748510547"><g><svg viewBox="0 0 91.52604748510547 91.52604748510547" height="91.52604748510547" width="91.52604748510547"><g id="textblocktransform"><svg viewBox="0 0 91.52604748510547 91.52604748510547" height="91.52604748510547" width="91.52604748510547" id="textblock"><g><svg viewBox="0 0 91.52604748510547 91.52604748510547" height="91.52604748510547" width="91.52604748510547"><g><svg viewBox="0 0 91.52604748510547 91.52604748510547" height="91.52604748510547" width="91.52604748510547"><g><svg/></g><g id="icon-0"><svg viewBox="0 0 91.52604748510547 91.52604748510547" height="91.52604748510547" width="91.52604748510547"><g><path d="M0 0" data-fill-palette-color="accent" fill="#ffffff" stroke="transparent"/><ellipse rx="45.305393505127206" ry="45.305393505127206" cx="45.76302374255273" cy="45.76302374255273" fill="#ffffff" stroke="transparent" stroke-width="0" fill-opacity="1" data-fill-palette-color="accent"/></g><g transform="matrix(1,0,0,1,16.77944245531636,19.052726960271343)"><svg viewBox="0 0 57.967162574472745 53.42059356456278" height="53.42059356456278" width="57.967162574472745"><g><svg xmlns="http://www.w3.org/2000/svg" xml:space="preserve" viewBox="0.2959480583667755 2.1750001907348633 49.50809860229492 45.625003814697266" x="0" y="0" height="53.42059356456278" width="57.967162574472745" class="icon-b-0" data-fill-palette-color="quaternary" id="b-0"><path d="M49.7 43.8c-0.2-0.4-0.6-0.7-1.1-0.7H44l-2.1-3.7 2.1-3.7h4.6c0.5 0 0.9-0.3 1.1-0.7s0.1-1-0.2-1.3c-1.6-1.8-3.9-2.7-6.3-2.7-4.4 0.1-8.1 3.8-8.2 8.2-0.1 2.3 0.8 4.4 2.4 6.1 1.6 1.6 3.7 2.5 6 2.5s4.6-1 6.2-2.7c0.2-0.3 0.2-0.9 0.1-1.3M6.9 31c-2.4 0-4.7 0.9-6.3 2.7-0.3 0.3-0.4 0.8-0.2 1.3 0.2 0.4 0.6 0.7 1.1 0.7h4.6l2.1 3.7-2.1 3.7H1.5c-0.5 0-0.9 0.3-1.1 0.7s-0.1 1 0.2 1.3c1.6 1.7 3.8 2.7 6.2 2.7 2.3 0 4.4-0.9 6-2.5s2.4-3.8 2.4-6.1c-0.2-4.4-3.9-8.1-8.3-8.2M27.7 6.9V2.4c-1.8-0.3-3.6-0.3-5.3 0v4.4c0 3.7 5.3 3.6 5.3 0.1M24.7 14.9c-1.5 0-2.8 1.3-2.8 2.8s1.3 2.8 2.8 2.8 2.8-1.3 2.8-2.8-1.2-2.8-2.8-2.8" fill="#000000" data-fill-palette-color="quaternary"/><path d="M30.9 3.3c-0.6-0.2-1.2-0.4-1.7-0.5V7c0 2.2-1.8 4.2-4.2 4.2s-4.1-2-4.1-4.2V2.7c-7.5 2-14.4 9.5-15.8 20.7h39.8c-1.2-9.4-6.6-17.3-14-20.1M24.7 22c-2.4 0-4.3-1.9-4.3-4.3s1.9-4.3 4.3-4.3 4.3 1.9 4.3 4.3-1.9 4.3-4.3 4.3M4.3 28h41.3c0.9 0 1.5-0.7 1.5-1.5 0-0.9-0.7-1.6-1.5-1.6H4.3c-0.9 0-1.5 0.7-1.5 1.6 0 0.8 0.7 1.5 1.5 1.5M15.7 35.2c0.6 1.2 0.9 2.5 1 4q0 2.4-0.9 4.5h18.6q-1.05-2.1-0.9-4.5c0-1.4 0.4-2.8 1-4z" fill="#000000" data-fill-palette-color="quaternary"/></svg></g></svg></g></svg></g></svg></g></svg></g></svg></g></svg></g><g/></svg></g><defs/></svg>