<svg xmlns="http://www.w3.org/2000/svg" xmlns:xlink="http://www.w3.org/1999/xlink" viewBox="0 0 311.0487730315127 247.2" height="247.2" width="311.0487730315127" data-background-color="#000000" preserveAspectRatio="xMidYMid meet" id="tight-bounds"><g><svg viewBox="0 0 395.52 314.3318748603279" height="247.2" width="311.0487730315127"><g transform="matrix(1,0,0,1,0,229.96483992252104)"><svg viewBox="0 0 395.52 84.36703493780686" height="84.36703493780686" width="395.52"><g id="textblocktransform"><svg viewBox="0 0 395.52 84.36703493780686" height="84.36703493780686" width="395.52" id="textblock"><g><svg viewBox="0 0 395.52 45.89531199713928" height="45.89531199713928" width="395.52"><g transform="matrix(1,0,0,1,0,0)"><svg width="395.52" viewBox="4.5 -32.099998474121094 279.6199951171875 32.44999694824219" height="45.89531199713928" data-palette-color="#ffffff"><path d="M20.35-3.35L20.65-3 20.3 0 4.5 0 4.75-9.65 4.5-32.05 8.6-32.05 8.35-10 8.5-3.35 20.35-3.35ZM35.95-24.9L44.7 0 40.95 0 40.35-2.7 39.05-6.4 33.1-6.45 27.8-6.4 26.45-2.9 25.75 0 22.05 0 31.65-24.9 35.95-24.9ZM33.4-9.4L38-9.45 33.85-21.25 33.55-21.25 29-9.45 33.4-9.4ZM62.59-12.95Q68.15-11.85 68.15-7.05L68.15-7.05Q68.15-3.45 65.34-1.65 62.55 0.15 57.15 0.15L57.15 0.15Q53.9 0.15 50.9 0L50.9 0 51.05-7.5 50.9-24.9 58.7-24.95Q62.45-24.95 64.52-23.38 66.59-21.8 66.59-18.9L66.59-18.9Q66.59-16.75 65.55-15.25 64.5-13.75 62.59-12.95L62.59-12.95ZM62.65-18.45Q62.65-20.3 61.45-21.15 60.25-22 57.6-22L57.6-22 54.55-22 54.5-14.3 58.95-14.15Q60.8-14.55 61.72-15.58 62.65-16.6 62.65-18.45L62.65-18.45ZM57.6-2.7Q60.85-2.7 62.57-3.83 64.3-4.95 64.3-7.15L64.3-7.15Q64.3-8.95 63.09-9.95 61.9-10.95 59.45-11.3L59.45-11.3 54.5-11.25 54.45-7.8 54.55-2.85Q56.1-2.7 57.6-2.7L57.6-2.7ZM84.74-25.2Q90.19-25.2 93.12-22 96.04-18.8 96.04-12.95L96.04-12.95Q96.04-6.6 92.92-3.13 89.79 0.35 83.99 0.35L83.99 0.35Q78.59 0.35 75.64-2.93 72.69-6.2 72.69-12.25L72.69-12.25Q72.69-18.45 75.84-21.83 78.99-25.2 84.74-25.2L84.74-25.2ZM84.39-22.05Q80.44-22.05 78.52-19.8 76.59-17.55 76.59-12.7L76.59-12.7Q76.59-7.5 78.49-5.15 80.39-2.8 84.29-2.8L84.29-2.8Q88.29-2.8 90.24-5.1 92.19-7.4 92.19-12.3L92.19-12.3Q92.19-17.35 90.27-19.7 88.34-22.05 84.39-22.05L84.39-22.05ZM122.09-24.9L121.94-12.25 121.94-8.65Q121.99-4.4 119.37-2.05 116.74 0.3 111.84 0.3L111.84 0.3Q106.99 0.3 104.44-2.02 101.89-4.35 101.99-8.65L101.99-8.65 102.04-12.45 101.99-24.9 105.74-24.9 105.54-9.25Q105.49-6.1 107.12-4.5 108.74-2.9 111.99-2.9L111.99-2.9Q115.19-2.9 116.84-4.5 118.49-6.1 118.44-9.25L118.44-9.25 118.29-24.9 122.09-24.9ZM141.69-10.05Q144.74-5.4 148.44-0.9L148.44-0.9 148.39-0.4Q146.29 0.25 144.94 0.35L144.94 0.35 144.29-0.05Q140.49-5.8 138.54-9.1L138.54-9.1 133.84-9.05 133.84-7.8 133.94 0 130.24 0 130.39-7.5 130.24-24.9 138.74-24.95Q142.69-24.95 144.81-23.1 146.94-21.25 146.94-17.75L146.94-17.75Q146.94-15.2 145.56-13.2 144.19-11.2 141.69-10.05L141.69-10.05ZM133.94-21.9L133.89-12.15 138.59-12Q143.04-13.25 143.04-17.45L143.04-17.45Q143.04-19.65 141.74-20.75 140.44-21.85 137.79-21.95L137.79-21.95 133.94-21.9ZM156.44-24.9L156.74-24.55 155.54-15.4 153.49-15.1 153.14-15.45 153.39-24.65 156.44-24.9ZM170.68-25.15Q173.73-25.15 176.78-23.95L176.78-23.95 176.13-20.25 175.53-20.1Q174.13-21.2 172.88-21.73 171.63-22.25 170.28-22.25L170.28-22.25Q168.13-22.25 166.88-21.13 165.63-20 165.63-18.55L165.63-18.55Q165.63-17.1 166.86-16.2 168.08-15.3 170.63-14.2L170.63-14.2Q172.88-13.2 174.21-12.4 175.53-11.6 176.51-10.28 177.48-8.95 177.48-7.05L177.48-7.05Q177.48-5.1 176.43-3.43 175.38-1.75 173.36-0.73 171.33 0.3 168.53 0.3L168.53 0.3Q166.78 0.3 164.86-0.13 162.93-0.55 161.28-1.4L161.28-1.4 161.73-5.35 162.23-5.55Q163.63-4.15 165.51-3.38 167.38-2.6 168.98-2.6L168.98-2.6Q171.08-2.6 172.43-3.73 173.78-4.85 173.78-6.45L173.78-6.45Q173.78-7.95 172.56-8.85 171.33-9.75 168.73-10.95L168.73-10.95Q166.58-11.9 165.21-12.7 163.83-13.5 162.88-14.83 161.93-16.15 161.93-18.05L161.93-18.05Q161.93-20.05 163.01-21.65 164.08-23.25 166.06-24.2 168.03-25.15 170.68-25.15L170.68-25.15ZM204.38-32.1L204.38-29.1 186.43-3.25 199.73-3.25 204.48-3.6 204.68-3.3 204.33 0.1 198.53 0 184.48 0 181.63 0.15 181.63-2.8 199.63-28.75 187.28-28.75 182.48-28.4 182.23-28.7 182.53-32.1 201.93-32.05 204.38-32.1ZM220.78-25.2Q226.23-25.2 229.15-22 232.08-18.8 232.08-12.95L232.08-12.95Q232.08-6.6 228.95-3.13 225.83 0.35 220.03 0.35L220.03 0.35Q214.63 0.35 211.68-2.93 208.73-6.2 208.73-12.25L208.73-12.25Q208.73-18.45 211.88-21.83 215.03-25.2 220.78-25.2L220.78-25.2ZM220.43-22.05Q216.48-22.05 214.55-19.8 212.63-17.55 212.63-12.7L212.63-12.7Q212.63-7.5 214.53-5.15 216.43-2.8 220.33-2.8L220.33-2.8Q224.33-2.8 226.28-5.1 228.23-7.4 228.23-12.3L228.23-12.3Q228.23-17.35 226.3-19.7 224.38-22.05 220.43-22.05L220.43-22.05ZM259.63-25L259.48-7.45 259.53 0 255.53 0 242.43-19 242.18-19 242.13-8.3 242.23 0 238.83 0 238.98-7.35 238.88-24.9 242.83-24.9 255.93-5.9 256.28-5.9 256.18-24.75 259.63-25ZM277.17-3L283.82-3.2 284.12-2.9 283.77 0 268.62 0 268.77-7.5 268.62-24.9 283.87-24.9 284.12-24.6 283.82-21.7 277.52-21.9 272.32-21.85 272.27-14.3 277.22-14.25 281.57-14.4 281.82-14.05 281.52-11.1 276.92-11.25 272.27-11.2 272.22-7.8 272.27-3.05 277.17-3Z" opacity="1" transform="matrix(1,0,0,1,0,0)" fill="#000000" class="wordmark-text-0" data-fill-palette-color="primary" id="text-0"/></svg></g></svg></g><g transform="matrix(1,0,0,1,0,56.73009367217593)"><svg viewBox="0 0 395.52 27.63694126563092" height="27.63694126563092" width="395.52"><g transform="matrix(1,0,0,1,0,0)"><svg width="395.52" viewBox="2.049999952316284 -35.5 659.6699829101562 46.099998474121094" height="27.63694126563092" data-palette-color="#f5f6eb"><path d="M18.75-32.35L18.75-35 2.05-35 2.05 0 4.9 0 4.9-17.85 13.3-17.85 14.45-20.6 4.9-20.6 4.9-32.35 18.75-32.35ZM22.5-25.05L22.5 0 25.35 0 25.35-25.05 22.5-25.05ZM23.95-35.5L23.95-35.5Q23.3-35.5 22.77-35 22.25-34.5 22.25-33.8L22.25-33.8Q22.25-33.15 22.77-32.65 23.3-32.15 23.95-32.15L23.95-32.15Q24.65-32.15 25.15-32.65 25.65-33.15 25.65-33.8L25.65-33.8Q25.65-34.5 25.15-35 24.65-35.5 23.95-35.5ZM44.95-17.1L44.95-17.1 44.95 0 47.7 0 47.7-17.25Q47.7-18.85 47.32-20.13 46.95-21.4 46.22-22.4 45.5-23.4 44.45-24.1 43.4-24.8 42.02-25.15 40.65-25.5 39-25.5L39-25.5Q37.75-25.5 36.52-25.23 35.3-24.95 34.17-24.48 33.05-24 32.09-23.35L32.09-23.35 32.09-25.05 29.25-25.05 29.25 0 32.09 0 32.09-21.25Q33.15-21.85 34.15-22.23 35.15-22.6 36.22-22.8 37.3-23 38.45-23L38.45-23Q39.65-23 40.8-22.7 41.95-22.4 42.9-21.73 43.84-21.05 44.4-19.93 44.95-18.8 44.95-17.1ZM70.94 0L70.94 0 70.94-35 68.19-35 68.19-23.65Q66.49-24.4 64.49-24.95 62.49-25.5 60.04-25.5L60.04-25.5Q58.54-25.5 57.07-25.1 55.59-24.7 54.37-23.83 53.14-22.95 52.42-21.5 51.69-20.05 51.69-17.95L51.69-17.95 51.69-8.45Q51.69-5.7 52.57-3.9 53.44-2.1 54.99-1.13 56.54-0.15 58.64 0.2 60.74 0.55 63.14 0.5L63.14 0.5Q63.84 0.5 64.84 0.45 65.84 0.4 66.92 0.33 67.99 0.25 68.92 0.18 69.84 0.1 70.42 0.05 70.99 0 70.94 0ZM68.19-21.15L68.19-21.15 68.19-2.3Q68.19-2.3 67.94-2.27 67.69-2.25 67.24-2.2 66.79-2.15 66.14-2.1 65.49-2.05 64.67-2 63.84-1.95 62.89-1.9L62.89-1.9Q60.39-1.85 58.77-2.23 57.14-2.6 56.19-3.48 55.24-4.35 54.84-5.68 54.44-7 54.44-8.8L54.44-8.8 54.44-17.75Q54.44-19.5 55.04-20.58 55.64-21.65 56.52-22.2 57.39-22.75 58.29-22.95 59.19-23.15 59.84-23.15L59.84-23.15Q62.24-23.15 64.22-22.58 66.19-22 68.19-21.15ZM91.89-6.6L91.89-6.6 91.89-22.4 96.74-22.4 97.94-25 91.89-25 91.89-35 89.09-35 89.09-6.6Q89.09-3.7 90.34-1.95 91.59-0.2 94.34 0.65L94.34 0.65 95.19-1.5Q94.09-1.9 93.36-2.58 92.64-3.25 92.26-4.28 91.89-5.3 91.89-6.6ZM104.59-23.35L104.59-23.35 104.59-35 101.74-35 101.74 0 104.59 0 104.59-21.25Q105.64-21.85 106.66-22.23 107.69-22.6 108.76-22.8 109.84-23 110.99-23L110.99-23Q112.19-23 113.34-22.73 114.49-22.45 115.41-21.78 116.34-21.1 116.89-19.98 117.44-18.85 117.44-17.15L117.44-17.15 117.44 0 120.24 0 120.24-17.3Q120.24-18.9 119.86-20.2 119.49-21.5 118.76-22.48 118.04-23.45 116.99-24.13 115.94-24.8 114.56-25.15 113.19-25.5 111.54-25.5L111.54-25.5Q110.29-25.5 109.06-25.23 107.84-24.95 106.69-24.48 105.54-24 104.59-23.35ZM126.93-6.7L126.93-6.7 126.93-9.8 142.18-10.6 142.18-17.1Q142.18-19.9 141.11-21.75 140.03-23.6 138.06-24.55 136.08-25.5 133.38-25.5L133.38-25.5Q130.73-25.5 128.63-24.55 126.53-23.6 125.33-21.7 124.13-19.8 124.13-16.95L124.13-16.95 124.13-6.7Q124.13-4.6 124.76-3.2 125.38-1.8 126.53-0.95 127.68-0.1 129.28 0.25 130.88 0.6 132.78 0.6L132.78 0.6Q134.68 0.6 136.88-0.03 139.08-0.65 140.93-1.75L140.93-1.75 139.83-3.9Q137.98-2.95 136.18-2.38 134.38-1.8 132.53-1.8L132.53-1.8Q131.33-1.8 130.31-2.08 129.28-2.35 128.53-2.93 127.78-3.5 127.36-4.42 126.93-5.35 126.93-6.7ZM139.38-17.45L139.38-17.45 139.38-13.1 126.93-12.55 126.93-16.9Q126.93-18.9 127.71-20.3 128.48-21.7 129.93-22.43 131.38-23.15 133.33-23.15L133.33-23.15Q135.08-23.15 136.43-22.45 137.78-21.75 138.58-20.48 139.38-19.2 139.38-17.45ZM162.58-23.65L162.58-23.65 162.58-35 159.73-35 159.73 0Q159.68 0 160.25 0.05 160.83 0.1 161.78 0.18 162.73 0.25 163.8 0.33 164.88 0.4 165.9 0.45 166.93 0.5 167.63 0.5L167.63 0.5Q170.03 0.55 172.1 0.2 174.18-0.15 175.73-1.13 177.28-2.1 178.13-3.9 178.98-5.7 178.98-8.45L178.98-8.45 178.98-17.95Q178.98-20.05 178.25-21.5 177.53-22.95 176.33-23.83 175.13-24.7 173.65-25.1 172.18-25.5 170.68-25.5L170.68-25.5Q169.03-25.5 167.6-25.25 166.18-25 164.95-24.58 163.73-24.15 162.58-23.65ZM162.58-2.25L162.58-2.25 162.58-21.15Q163.93-21.75 165.23-22.2 166.53-22.65 167.9-22.9 169.28-23.15 170.88-23.15L170.88-23.15Q171.58-23.15 172.48-22.95 173.38-22.75 174.25-22.2 175.13-21.65 175.68-20.58 176.23-19.5 176.23-17.75L176.23-17.75 176.23-8.8Q176.23-7 175.85-5.68 175.48-4.35 174.55-3.48 173.63-2.6 172-2.23 170.38-1.85 167.88-1.9L167.88-1.9Q166.68-1.95 165.68-2 164.68-2.05 164-2.13 163.33-2.2 162.95-2.23 162.58-2.25 162.58-2.25ZM185.68-6.7L185.68-6.7 185.68-9.8 200.93-10.6 200.93-17.1Q200.93-19.9 199.85-21.75 198.78-23.6 196.8-24.55 194.83-25.5 192.13-25.5L192.13-25.5Q189.48-25.5 187.38-24.55 185.28-23.6 184.08-21.7 182.88-19.8 182.88-16.95L182.88-16.95 182.88-6.7Q182.88-4.6 183.5-3.2 184.13-1.8 185.28-0.95 186.43-0.1 188.03 0.25 189.63 0.6 191.53 0.6L191.53 0.6Q193.43 0.6 195.63-0.03 197.83-0.65 199.68-1.75L199.68-1.75 198.58-3.9Q196.73-2.95 194.93-2.38 193.13-1.8 191.28-1.8L191.28-1.8Q190.08-1.8 189.05-2.08 188.03-2.35 187.28-2.93 186.53-3.5 186.1-4.42 185.68-5.35 185.68-6.7ZM198.13-17.45L198.13-17.45 198.13-13.1 185.68-12.55 185.68-16.9Q185.68-18.9 186.45-20.3 187.23-21.7 188.68-22.43 190.13-23.15 192.08-23.15L192.08-23.15Q193.83-23.15 195.18-22.45 196.53-21.75 197.33-20.48 198.13-19.2 198.13-17.45ZM218.32-21.95L218.32-21.95 219.47-23.85Q218.27-24.6 217.12-24.98 215.97-25.35 214.92-25.48 213.87-25.6 212.87-25.6L212.87-25.6Q211.37-25.6 209.92-25.2 208.47-24.8 207.3-23.98 206.12-23.15 205.42-21.98 204.72-20.8 204.72-19.2L204.72-19.2Q204.72-17.55 205.5-16.38 206.27-15.2 207.52-14.35 208.77-13.5 210.3-12.85 211.82-12.2 213.35-11.6 214.87-11 216.12-10.28 217.37-9.55 218.15-8.58 218.92-7.6 218.92-6.25L218.92-6.25Q218.92-5.05 218.35-4.2 217.77-3.35 216.85-2.78 215.92-2.2 214.87-1.95 213.82-1.7 212.87-1.7L212.87-1.7Q211.32-1.7 209.95-2.08 208.57-2.45 207.37-3.2 206.17-3.95 205.02-5.05L205.02-5.05 203.47-3.4Q205.22-1.4 207.72-0.25 210.22 0.9 212.87 0.9L212.87 0.9Q214.47 0.9 216 0.45 217.52 0 218.77-0.9 220.02-1.8 220.77-3.15 221.52-4.5 221.52-6.3L221.52-6.3Q221.52-8.15 220.75-9.43 219.97-10.7 218.72-11.6 217.47-12.5 215.95-13.18 214.42-13.85 212.92-14.43 211.42-15 210.17-15.68 208.92-16.35 208.15-17.2 207.37-18.05 207.37-19.3L207.37-19.3Q207.37-20.35 207.92-21.1 208.47-21.85 209.37-22.33 210.27-22.8 211.35-23.03 212.42-23.25 213.42-23.25L213.42-23.25Q214.27-23.25 215.15-23.1 216.02-22.95 216.85-22.68 217.67-22.4 218.32-21.95ZM228.42-6.6L228.42-6.6 228.42-22.4 233.27-22.4 234.47-25 228.42-25 228.42-35 225.62-35 225.62-6.6Q225.62-3.7 226.87-1.95 228.12-0.2 230.87 0.65L230.87 0.65 231.72-1.5Q230.62-1.9 229.9-2.58 229.17-3.25 228.8-4.28 228.42-5.3 228.42-6.6ZM274.27-2.85L268.77-24.95 265.92-24.95 260.32-2.85 253.57-24.95 250.67-24.95 258.27 0 262.17 0 267.27-20.25 272.27 0 276.12 0 283.92-24.95 280.97-24.95 274.27-2.85ZM304.41-9.25L304.41-9.25 304.41-15.8Q304.41-20.4 302.06-23 299.71-25.6 295.26-25.6L295.26-25.6Q292.31-25.6 290.21-24.48 288.11-23.35 287.01-21.18 285.91-19 285.91-15.8L285.91-15.8 285.91-9.25Q285.91-6.55 286.96-4.35 288.01-2.15 290.14-0.83 292.26 0.5 295.36 0.5L295.36 0.5Q299.91 0.5 302.16-2.18 304.41-4.85 304.41-9.25ZM301.61-15.8L301.61-15.8 301.61-8.75Q301.61-6.7 300.94-5.18 300.26-3.65 298.86-2.83 297.46-2 295.36-2L295.36-2Q293.36-2 291.86-2.85 290.36-3.7 289.54-5.23 288.71-6.75 288.71-8.75L288.71-8.75 288.71-15.8Q288.71-18.2 289.46-19.83 290.21-21.45 291.69-22.28 293.16-23.1 295.36-23.1L295.36-23.1Q297.56-23.1 298.94-22.28 300.31-21.45 300.96-19.83 301.61-18.2 301.61-15.8ZM321.86-23.05L321.86-23.05 322.06-25.45Q322.06-25.45 321.39-25.55 320.71-25.65 319.81-25.6L319.81-25.6Q317.11-25.45 315.14-24.85 313.16-24.25 311.31-23.4L311.31-23.4 311.31-25.05 308.46-25.05 308.46 0 311.31 0 311.31-20.45Q312.01-20.9 313.01-21.38 314.01-21.85 315.16-22.23 316.31-22.6 317.51-22.83 318.71-23.05 319.76-23.1L319.76-23.1Q320.61-23.15 321.24-23.1 321.86-23.05 321.86-23.05ZM344.26 0L333.36-17.6 340.76-24.1 338.76-26 328.76-16.75 328.76-35 325.91-35 325.91 0 328.76 0 328.76-13.65 331.36-15.85 340.91 0 344.26 0ZM349.31-6.7L349.31-6.7 349.31-9.8 364.56-10.6 364.56-17.1Q364.56-19.9 363.48-21.75 362.41-23.6 360.43-24.55 358.46-25.5 355.76-25.5L355.76-25.5Q353.11-25.5 351.01-24.55 348.91-23.6 347.71-21.7 346.51-19.8 346.51-16.95L346.51-16.95 346.51-6.7Q346.51-4.6 347.13-3.2 347.76-1.8 348.91-0.95 350.06-0.1 351.66 0.25 353.26 0.6 355.16 0.6L355.16 0.6Q357.06 0.6 359.26-0.03 361.46-0.65 363.31-1.75L363.31-1.75 362.21-3.9Q360.36-2.95 358.56-2.38 356.76-1.8 354.91-1.8L354.91-1.8Q353.71-1.8 352.68-2.08 351.66-2.35 350.91-2.93 350.16-3.5 349.73-4.42 349.31-5.35 349.31-6.7ZM361.76-17.45L361.76-17.45 361.76-13.1 349.31-12.55 349.31-16.9Q349.31-18.9 350.08-20.3 350.86-21.7 352.31-22.43 353.76-23.15 355.71-23.15L355.71-23.15Q357.46-23.15 358.81-22.45 360.16-21.75 360.96-20.48 361.76-19.2 361.76-17.45ZM381.95-23.05L381.95-23.05 382.15-25.45Q382.15-25.45 381.48-25.55 380.8-25.65 379.9-25.6L379.9-25.6Q377.2-25.45 375.23-24.85 373.25-24.25 371.4-23.4L371.4-23.4 371.4-25.05 368.55-25.05 368.55 0 371.4 0 371.4-20.45Q372.1-20.9 373.1-21.38 374.1-21.85 375.25-22.23 376.4-22.6 377.6-22.83 378.8-23.05 379.85-23.1L379.85-23.1Q380.7-23.15 381.33-23.1 381.95-23.05 381.95-23.05ZM398.55-21.95L398.55-21.95 399.7-23.85Q398.5-24.6 397.35-24.98 396.2-25.35 395.15-25.48 394.1-25.6 393.1-25.6L393.1-25.6Q391.6-25.6 390.15-25.2 388.7-24.8 387.53-23.98 386.35-23.15 385.65-21.98 384.95-20.8 384.95-19.2L384.95-19.2Q384.95-17.55 385.73-16.38 386.5-15.2 387.75-14.35 389-13.5 390.53-12.85 392.05-12.2 393.58-11.6 395.1-11 396.35-10.28 397.6-9.55 398.38-8.58 399.15-7.6 399.15-6.25L399.15-6.25Q399.15-5.05 398.58-4.2 398-3.35 397.08-2.78 396.15-2.2 395.1-1.95 394.05-1.7 393.1-1.7L393.1-1.7Q391.55-1.7 390.18-2.08 388.8-2.45 387.6-3.2 386.4-3.95 385.25-5.05L385.25-5.05 383.7-3.4Q385.45-1.4 387.95-0.25 390.45 0.9 393.1 0.9L393.1 0.9Q394.7 0.9 396.23 0.45 397.75 0 399-0.9 400.25-1.8 401-3.15 401.75-4.5 401.75-6.3L401.75-6.3Q401.75-8.15 400.98-9.43 400.2-10.7 398.95-11.6 397.7-12.5 396.18-13.18 394.65-13.85 393.15-14.43 391.65-15 390.4-15.68 389.15-16.35 388.38-17.2 387.6-18.05 387.6-19.3L387.6-19.3Q387.6-20.35 388.15-21.1 388.7-21.85 389.6-22.33 390.5-22.8 391.58-23.03 392.65-23.25 393.65-23.25L393.65-23.25Q394.5-23.25 395.38-23.1 396.25-22.95 397.08-22.68 397.9-22.4 398.55-21.95ZM437.2-9.25L437.2-9.25 437.2-15.8Q437.2-20.4 434.85-23 432.5-25.6 428.05-25.6L428.05-25.6Q425.1-25.6 423-24.48 420.9-23.35 419.8-21.18 418.7-19 418.7-15.8L418.7-15.8 418.7-9.25Q418.7-6.55 419.75-4.35 420.8-2.15 422.92-0.83 425.05 0.5 428.15 0.5L428.15 0.5Q432.7 0.5 434.95-2.18 437.2-4.85 437.2-9.25ZM434.4-15.8L434.4-15.8 434.4-8.75Q434.4-6.7 433.72-5.18 433.05-3.65 431.65-2.83 430.25-2 428.15-2L428.15-2Q426.15-2 424.65-2.85 423.15-3.7 422.32-5.23 421.5-6.75 421.5-8.75L421.5-8.75 421.5-15.8Q421.5-18.2 422.25-19.83 423-21.45 424.47-22.28 425.95-23.1 428.15-23.1L428.15-23.1Q430.35-23.1 431.72-22.28 433.1-21.45 433.75-19.83 434.4-18.2 434.4-15.8ZM456.94-17.1L456.94-17.1 456.94 0 459.69 0 459.69-17.25Q459.69-18.85 459.32-20.13 458.94-21.4 458.22-22.4 457.49-23.4 456.44-24.1 455.39-24.8 454.02-25.15 452.64-25.5 450.99-25.5L450.99-25.5Q449.74-25.5 448.52-25.23 447.29-24.95 446.17-24.48 445.04-24 444.09-23.35L444.09-23.35 444.09-25.05 441.24-25.05 441.24 0 444.09 0 444.09-21.25Q445.14-21.85 446.14-22.23 447.14-22.6 448.22-22.8 449.29-23 450.44-23L450.44-23Q451.64-23 452.79-22.7 453.94-22.4 454.89-21.73 455.84-21.05 456.39-19.93 456.94-18.8 456.94-17.1ZM497.39-23.5L497.39-23.5 496.39-25.6Q495.24-25.2 494.46-24.43 493.69-23.65 493.31-22.63 492.94-21.6 492.94-20.45L492.94-20.45 492.94-8.7Q492.94-7.4 492.44-6.23 491.94-5.05 491.09-4.15 490.24-3.25 489.09-2.73 487.94-2.2 486.59-2.2L486.59-2.2Q485.44-2.2 484.29-2.48 483.14-2.75 482.19-3.4 481.24-4.05 480.66-5.2 480.09-6.35 480.09-8.1L480.09-8.1 480.09-25.05 477.24-25.05 477.24-7.9Q477.24-5.75 477.81-4.17 478.39-2.6 479.51-1.58 480.64-0.55 482.26-0.05 483.89 0.45 485.99 0.45L485.99 0.45Q487.24 0.45 488.54 0.13 489.84-0.2 490.99-0.85 492.14-1.5 492.94-2.5L492.94-2.5 492.94 3.05Q492.94 3.95 492.76 4.78 492.59 5.6 492.19 6.28 491.79 6.95 491.16 7.45 490.54 7.95 489.69 8.3L489.69 8.3 490.49 10.45Q492.39 9.8 493.54 8.9 494.69 8 495.21 6.58 495.74 5.15 495.74 3.1L495.74 3.1 495.74-20.4Q495.74-22 496.24-22.6 496.74-23.2 497.39-23.5ZM519.14-9.25L519.14-9.25 519.14-15.8Q519.14-20.4 516.79-23 514.44-25.6 509.99-25.6L509.99-25.6Q507.04-25.6 504.94-24.48 502.84-23.35 501.74-21.18 500.64-19 500.64-15.8L500.64-15.8 500.64-9.25Q500.64-6.55 501.69-4.35 502.74-2.15 504.86-0.83 506.99 0.5 510.09 0.5L510.09 0.5Q514.64 0.5 516.89-2.18 519.14-4.85 519.14-9.25ZM516.34-15.8L516.34-15.8 516.34-8.75Q516.34-6.7 515.66-5.18 514.99-3.65 513.59-2.83 512.19-2 510.09-2L510.09-2Q508.09-2 506.59-2.85 505.09-3.7 504.26-5.23 503.44-6.75 503.44-8.75L503.44-8.75 503.44-15.8Q503.44-18.2 504.19-19.83 504.94-21.45 506.41-22.28 507.89-23.1 510.09-23.1L510.09-23.1Q512.29-23.1 513.66-22.28 515.04-21.45 515.69-19.83 516.34-18.2 516.34-15.8ZM538.83-2.4L538.83-2.4 538.83 0 541.63 0 541.63-25.05 538.83-25.05 538.83-8.65Q538.83-7.3 538.33-6.15 537.83-5 536.91-4.1 535.98-3.2 534.73-2.7 533.48-2.2 531.98-2.2L531.98-2.2Q530.08-2.2 528.73-2.83 527.38-3.45 526.68-4.85 525.98-6.25 525.98-8.55L525.98-8.55 525.98-25.05 523.13-25.05 523.13-7.85Q523.13-6.15 523.51-4.8 523.88-3.45 524.61-2.45 525.33-1.45 526.41-0.8 527.48-0.15 528.86 0.18 530.23 0.5 531.88 0.5L531.88 0.5Q533.13 0.5 534.43 0.18 535.73-0.15 536.88-0.8 538.03-1.45 538.83-2.4ZM559.33-23.05L559.33-23.05 559.53-25.45Q559.53-25.45 558.86-25.55 558.18-25.65 557.28-25.6L557.28-25.6Q554.58-25.45 552.61-24.85 550.63-24.25 548.78-23.4L548.78-23.4 548.78-25.05 545.93-25.05 545.93 0 548.78 0 548.78-20.45Q549.48-20.9 550.48-21.38 551.48-21.85 552.63-22.23 553.78-22.6 554.98-22.83 556.18-23.05 557.23-23.1L557.23-23.1Q558.08-23.15 558.71-23.1 559.33-23.05 559.33-23.05ZM595.13-8.8L595.13-8.8 595.13-17.3Q595.13-19.95 594.15-21.83 593.17-23.7 591.3-24.68 589.42-25.65 586.63-25.5L586.63-25.5Q585.42-25.45 584.2-25.13 582.97-24.8 581.8-24.18 580.63-23.55 579.52-22.65L579.52-22.65 579.52-25 576.63-25 576.63 9.4 579.52 10.6 579.52-3.05Q580.13-2.05 581.2-1.2 582.27-0.35 583.67 0.13 585.07 0.6 586.63 0.6L586.63 0.6Q590.77 0.6 592.95-1.83 595.13-4.25 595.13-8.8ZM592.27-17.15L592.27-17.15 592.27-8.35Q592.27-6.2 591.6-4.8 590.92-3.4 589.65-2.7 588.38-2 586.47-2L586.47-2Q585.02-2 583.77-2.45 582.52-2.9 581.57-3.75 580.63-4.6 580.07-5.85 579.52-7.1 579.52-8.7L579.52-8.7 579.52-19.65Q580.27-20.7 581.38-21.4 582.47-22.1 583.7-22.5 584.92-22.9 586.02-23L586.02-23Q587.22-23.1 588.35-22.83 589.47-22.55 590.35-21.88 591.22-21.2 591.75-20.03 592.27-18.85 592.27-17.15ZM615.47-17.5L615.47-17.5Q614.32-18.2 612.9-18.8 611.47-19.4 609.92-19.78 608.37-20.15 606.72-20.15L606.72-20.15Q605.22-20.15 603.85-19.75 602.47-19.35 601.37-18.48 600.27-17.6 599.65-16.15 599.02-14.7 599.02-12.6L599.02-12.6 599.02-8.45Q599.02-5.7 599.9-3.9 600.77-2.1 602.3-1.13 603.82-0.15 605.9 0.2 607.97 0.55 610.37 0.5L610.37 0.5Q611.12 0.5 612.15 0.45 613.17 0.4 614.25 0.33 615.32 0.25 616.25 0.18 617.17 0.1 617.75 0.05 618.32 0 618.27 0L618.27 0 618.27-14.4Q618.27-17.5 617.77-19.63 617.27-21.75 616.1-23.03 614.92-24.3 612.92-24.88 610.92-25.45 607.87-25.45L607.87-25.45 607.77-23.3Q609.27-23.3 610.67-23.08 612.07-22.85 613.15-22.25 614.22-21.65 614.85-20.5 615.47-19.35 615.47-17.5ZM615.47-15.15L615.47-15.15 615.47-2.3Q615.47-2.3 615.25-2.27 615.02-2.25 614.57-2.23 614.12-2.2 613.47-2.13 612.82-2.05 612-2 611.17-1.95 610.17-1.9L610.17-1.9Q607.67-1.8 606.02-2.18 604.37-2.55 603.45-3.43 602.52-4.3 602.15-5.65 601.77-7 601.77-8.8L601.77-8.8 601.77-12.5Q601.77-14.2 602.25-15.25 602.72-16.3 603.47-16.82 604.22-17.35 605.02-17.55 605.82-17.75 606.47-17.75L606.47-17.75Q608.07-17.75 609.62-17.4 611.17-17.05 612.67-16.45 614.17-15.85 615.47-15.15ZM622.47-35L622.47 0 625.27 0 625.27-35 622.47-35ZM659.07-17.1L659.07-17.1 659.07 0 661.72 0 661.72-17.2Q661.72-19.2 661.22-20.75 660.72-22.3 659.69-23.35 658.67-24.4 657.14-24.93 655.62-25.45 653.52-25.45L653.52-25.45Q652.12-25.45 650.72-25.1 649.32-24.75 648.02-24.13 646.72-23.5 645.62-22.65L645.62-22.65Q644.97-23.55 643.99-24.18 643.02-24.8 641.74-25.13 640.47-25.45 638.87-25.45L638.87-25.45Q637.62-25.45 636.52-25.18 635.42-24.9 634.42-24.43 633.42-23.95 632.42-23.3L632.42-23.3 632.42-25 629.57-25 629.57 0 632.42 0 632.42-21.15Q633.47-21.75 634.37-22.15 635.27-22.55 636.24-22.75 637.22-22.95 638.37-22.95L638.37-22.95Q639.57-22.95 640.67-22.68 641.77-22.4 642.59-21.73 643.42-21.05 643.92-19.93 644.42-18.8 644.42-17.1L644.42-17.1 644.42 0 647.02 0 647.02-17.2Q647.02-18.25 646.89-19.18 646.77-20.1 646.47-20.9L646.47-20.9Q647.67-21.65 648.79-22.1 649.92-22.55 650.99-22.75 652.07-22.95 653.02-22.95L653.02-22.95Q654.22-22.95 655.29-22.68 656.37-22.4 657.22-21.73 658.07-21.05 658.57-19.93 659.07-18.8 659.07-17.1Z" opacity="1" transform="matrix(1,0,0,1,0,0)" fill="#000000" class="slogan-text-1" data-fill-palette-color="secondary" id="text-1"/></svg></g></svg></g></svg></g></svg></g><g transform="matrix(1,0,0,1,93.61236171377612,0)"><svg viewBox="0 0 208.29527657244773 208.29527657244773" height="208.29527657244773" width="208.29527657244773"><g><svg/></g><g id="icon-0"><svg viewBox="0 0 208.29527657244773 208.29527657244773" height="208.29527657244773" width="208.29527657244773"><g><path d="M0 104.148c0-57.519 46.628-104.148 104.148-104.148 57.519 0 104.148 46.628 104.147 104.148 0 57.519-46.628 104.148-104.147 104.147-57.519 0-104.148-46.628-104.148-104.147zM104.148 204.156c55.233 0 100.009-44.775 100.008-100.008 0-55.233-44.775-100.009-100.008-100.009-55.233 0-100.009 44.775-100.009 100.009 0 55.233 44.775 100.009 100.009 100.008z" data-fill-palette-color="accent" fill="#000000" stroke="transparent"/><ellipse rx="103.10616190336162" ry="103.10616190336162" cx="104.14763828622387" cy="104.14763828622387" fill="#000000" stroke="transparent" stroke-width="0" fill-opacity="1" data-fill-palette-color="accent"/></g><g transform="matrix(1,0,0,1,41.23980796976537,46.17389097633017)"><svg viewBox="0 0 125.81566063291699 115.94749461978739" height="115.94749461978739" width="125.81566063291699"><g><svg xmlns="http://www.w3.org/2000/svg" xml:space="preserve" viewBox="0.2959480583667755 2.1750001907348633 49.50809860229492 45.625003814697266" x="0" y="0" height="115.94749461978739" width="125.81566063291699" class="icon-b-0" data-fill-palette-color="quaternary" id="b-0" fill="#ffffff"><path d="M49.7 43.8c-0.2-0.4-0.6-0.7-1.1-0.7H44l-2.1-3.7 2.1-3.7h4.6c0.5 0 0.9-0.3 1.1-0.7s0.1-1-0.2-1.3c-1.6-1.8-3.9-2.7-6.3-2.7-4.4 0.1-8.1 3.8-8.2 8.2-0.1 2.3 0.8 4.4 2.4 6.1 1.6 1.6 3.7 2.5 6 2.5s4.6-1 6.2-2.7c0.2-0.3 0.2-0.9 0.1-1.3M6.9 31c-2.4 0-4.7 0.9-6.3 2.7-0.3 0.3-0.4 0.8-0.2 1.3 0.2 0.4 0.6 0.7 1.1 0.7h4.6l2.1 3.7-2.1 3.7H1.5c-0.5 0-0.9 0.3-1.1 0.7s-0.1 1 0.2 1.3c1.6 1.7 3.8 2.7 6.2 2.7 2.3 0 4.4-0.9 6-2.5s2.4-3.8 2.4-6.1c-0.2-4.4-3.9-8.1-8.3-8.2M27.7 6.9V2.4c-1.8-0.3-3.6-0.3-5.3 0v4.4c0 3.7 5.3 3.6 5.3 0.1M24.7 14.9c-1.5 0-2.8 1.3-2.8 2.8s1.3 2.8 2.8 2.8 2.8-1.3 2.8-2.8-1.2-2.8-2.8-2.8" fill="#ffffff" data-fill-palette-color="quaternary"/><path d="M30.9 3.3c-0.6-0.2-1.2-0.4-1.7-0.5V7c0 2.2-1.8 4.2-4.2 4.2s-4.1-2-4.1-4.2V2.7c-7.5 2-14.4 9.5-15.8 20.7h39.8c-1.2-9.4-6.6-17.3-14-20.1M24.7 22c-2.4 0-4.3-1.9-4.3-4.3s1.9-4.3 4.3-4.3 4.3 1.9 4.3 4.3-1.9 4.3-4.3 4.3M4.3 28h41.3c0.9 0 1.5-0.7 1.5-1.5 0-0.9-0.7-1.6-1.5-1.6H4.3c-0.9 0-1.5 0.7-1.5 1.6 0 0.8 0.7 1.5 1.5 1.5M15.7 35.2c0.6 1.2 0.9 2.5 1 4q0 2.4-0.9 4.5h18.6q-1.05-2.1-0.9-4.5c0-1.4 0.4-2.8 1-4z" fill="#ffffff" data-fill-palette-color="quaternary"/></svg></g></svg></g></svg></g></svg></g><g/></svg></g><defs/></svg>